<?xml version="1.0" standalone="no"?>
<!DOCTYPE svg PUBLIC "-//W3C//DTD SVG 20010904//EN"
 "http://www.w3.org/TR/2001/REC-SVG-20010904/DTD/svg10.dtd">
<svg version="1.0" xmlns="http://www.w3.org/2000/svg"
 width="2650.000000pt" height="70.000000pt" viewBox="0 0 2650.000000 70.000000"
 preserveAspectRatio="xMidYMid meet">

<g transform="translate(0.000000,702.000000) scale(0.100000,-0.100000)"
fill="#000000" stroke="none">
<path d="M896 5955 c-75 -26 -126 -81 -146 -155 -7 -25 -9 -848 -8 -2436 l3
-2399 28 -48 c15 -26 47 -60 69 -75 l42 -27 1243 -3 1243 -2 0 1683 0 1683
-26 53 c-17 34 -41 62 -67 79 l-40 27 -481 5 c-415 4 -486 7 -516 21 -47 22
-84 58 -109 107 -20 40 -21 56 -21 422 0 367 1 382 21 422 11 22 35 54 52 70
67 61 -21 58 1731 58 926 0 1618 -4 1640 -10 59 -13 117 -59 145 -115 l26 -49
0 -376 0 -376 -26 -49 c-28 -56 -86 -102 -145 -115 -21 -5 -241 -10 -487 -10
-501 0 -486 2 -551 -70 -19 -21 -39 -56 -45 -77 -8 -26 -11 -562 -11 -1710 l0
-1673 843 0 844 0 42 23 c24 12 57 42 75 66 l31 43 0 2442 0 2442 -27 42 c-15
22 -49 54 -75 69 l-48 28 -2605 2 c-2220 2 -2611 0 -2644 -12z m666 -1622 c3
-225 6 -238 64 -297 64 -63 41 -61 594 -66 l505 -5 48 -28 c26 -15 60 -47 75
-69 l27 -42 3 -1278 2 -1278 -219 0 c-131 0 -231 4 -248 11 -31 11 -78 53 -96
84 -9 15 -13 299 -17 1075 -5 1012 -6 1057 -24 1093 -11 22 -37 51 -59 65
l-40 27 -407 5 -407 5 -40 27 c-75 49 -78 63 -81 400 -3 320 1 356 45 409 42
49 95 69 190 69 l82 0 3 -207z"/>
<path d="M21522 5700 c-71 -36 -125 -98 -143 -164 -15 -55 -7 -163 15 -208 62
-128 221 -188 376 -142 72 21 150 98 175 173 35 105 7 218 -72 292 -61 58 -97
72 -198 77 -85 3 -93 2 -153 -28z"/>
<path d="M15960 5572 l-255 -139 -3 -177 -2 -177 42 25 c137 79 472 266 478
266 4 0 118 -63 254 -140 135 -77 248 -140 251 -140 3 0 5 78 5 173 l0 172
-247 135 c-136 74 -252 136 -258 138 -5 1 -125 -60 -265 -136z"/>
<path d="M14590 5125 c0 -250 -1 -455 -2 -455 -2 0 -37 33 -79 73 -84 82 -201
149 -329 189 -65 20 -95 23 -230 23 -183 0 -258 -17 -404 -93 -118 -60 -260
-197 -329 -316 -145 -249 -184 -581 -106 -891 22 -88 90 -238 138 -309 117
-169 295 -294 496 -347 112 -29 307 -29 419 0 154 41 296 129 379 236 l42 55
3 -140 3 -140 244 0 245 0 0 1285 0 1285 -245 0 -245 0 0 -455z m-395 -600
c195 -50 338 -201 380 -403 19 -86 19 -218 0 -306 -41 -196 -177 -345 -364
-400 -66 -19 -188 -21 -256 -2 -305 81 -470 445 -355 783 25 73 98 181 153
226 124 101 293 140 442 102z"/>
<path d="M7370 5240 l0 -190 323 -2 322 -3 3 -1017 2 -1018 240 0 240 0 0
1020 0 1020 325 0 325 0 0 190 0 190 -890 0 -890 0 0 -190z"/>
<path d="M9717 4945 c-297 -56 -526 -231 -651 -495 -125 -265 -135 -613 -27
-900 55 -146 196 -325 324 -410 234 -157 558 -206 849 -130 252 66 464 245
573 484 18 39 36 81 39 94 l7 22 -259 0 -259 0 -31 -49 c-67 -103 -165 -164
-292 -183 -195 -29 -399 72 -480 236 -30 60 -64 192 -54 208 3 4 322 8 709 8
l703 0 7 77 c17 171 -18 391 -82 534 -112 245 -317 416 -588 489 -106 29 -372
37 -488 15z m316 -390 c185 -39 319 -178 343 -354 l7 -51 -462 0 c-529 0 -479
-12 -440 102 29 87 61 137 124 197 109 104 262 141 428 106z"/>
<path d="M11980 4946 c-148 -32 -267 -94 -372 -194 l-58 -55 0 116 0 117 -240
0 -240 0 0 -960 0 -960 240 0 240 0 0 569 c0 312 4 590 9 617 18 95 51 162
108 224 88 96 208 138 361 127 101 -7 179 -37 243 -94 61 -56 91 -100 121
-185 23 -63 23 -67 26 -660 l3 -598 240 0 240 0 -3 658 c-4 643 -4 659 -26
737 -29 103 -88 225 -145 296 -84 104 -225 194 -366 230 -99 26 -291 34 -381
15z"/>
<path d="M15991 4939 c-414 -87 -678 -397 -723 -851 -53 -523 220 -958 676
-1077 203 -53 441 -47 626 17 253 88 452 286 545 545 l14 37 -259 0 -259 0
-37 -55 c-67 -101 -152 -155 -281 -176 -197 -32 -399 65 -484 233 -31 62 -63
182 -55 204 4 12 128 14 708 16 l703 3 8 80 c4 45 3 131 -3 196 -39 445 -312
752 -740 833 -117 23 -320 20 -439 -5z m394 -399 c166 -57 265 -176 289 -347
l6 -43 -464 0 -464 0 14 62 c41 174 170 305 337 343 79 19 204 12 282 -15z"/>
<path d="M18292 4950 c-142 -26 -269 -90 -373 -187 l-69 -65 0 116 0 116 -245
0 -245 0 0 -960 0 -960 245 0 244 0 3 608 c3 605 3 607 26 663 67 167 186 254
364 266 229 17 393 -93 455 -303 15 -52 17 -126 21 -646 l3 -588 240 0 239 0
0 593 c0 630 -5 717 -47 852 -38 122 -85 199 -182 296 -138 139 -282 197 -506
204 -66 2 -144 0 -173 -5z"/>
<path d="M20100 4941 c-231 -50 -434 -183 -560 -365 -51 -75 -108 -205 -137
-311 -24 -91 -26 -116 -27 -290 0 -208 9 -265 63 -415 76 -206 239 -389 438
-489 149 -74 361 -109 555 -91 378 36 654 250 773 600 l24 70 -262 0 -262 0
-19 -46 c-28 -69 -104 -146 -178 -180 -59 -27 -71 -29 -188 -29 -121 0 -128 1
-191 32 -118 58 -209 180 -246 330 -23 95 -23 332 0 427 39 156 126 273 247
330 62 30 71 31 190 31 118 0 129 -2 185 -29 74 -37 143 -105 176 -173 l24
-52 259 -1 259 0 -6 29 c-4 16 -20 65 -36 108 -72 185 -219 347 -394 433 -151
74 -228 92 -432 96 -139 3 -186 0 -255 -15z"/>
<path d="M22785 4945 c-330 -74 -567 -313 -662 -670 -24 -92 -26 -116 -27
-295 0 -213 8 -269 63 -419 105 -288 317 -488 596 -562 62 -16 109 -21 210
-21 151 0 247 21 363 78 86 42 207 136 242 187 14 20 28 37 33 37 4 0 7 -61 7
-135 l0 -135 240 0 240 0 0 960 0 960 -240 0 -240 0 0 -137 0 -136 -62 65
c-109 114 -248 191 -400 222 -94 19 -279 20 -363 1z m428 -420 c258 -67 411
-301 393 -600 -10 -160 -61 -282 -160 -380 -107 -107 -229 -152 -386 -142
-209 12 -371 144 -447 364 -23 68 -27 94 -27 203 -1 145 18 223 81 329 110
186 339 280 546 226z"/>
<path d="M24935 4953 c-269 -42 -483 -189 -555 -380 -39 -104 -43 -244 -11
-360 19 -68 89 -161 166 -220 87 -66 172 -102 378 -159 459 -128 519 -161 519
-285 0 -81 -56 -145 -157 -180 -61 -21 -219 -18 -280 5 -106 40 -186 121 -201
203 l-6 33 -245 0 -245 0 7 -47 c55 -377 457 -626 942 -583 278 25 478 134
585 320 87 151 82 389 -11 524 -38 55 -126 136 -183 170 -65 38 -211 89 -406
142 -296 80 -389 129 -413 216 -22 82 15 154 99 195 52 26 66 28 172 28 106 0
120 -2 172 -28 71 -35 124 -95 144 -164 l15 -53 231 0 230 0 -7 43 c-26 170
-72 264 -185 377 -149 150 -288 201 -560 205 -91 2 -178 1 -195 -2z"/>
<path d="M21420 3970 l0 -960 240 0 240 0 0 960 0 960 -240 0 -240 0 0 -960z"/>
<path d="M24293 2515 c-38 -16 -63 -60 -63 -111 0 -28 8 -44 34 -70 29 -29 41
-34 80 -34 121 0 161 162 52 214 -41 19 -61 20 -103 1z"/>
<path d="M21052 1648 l3 -853 78 -3 77 -3 0 856 0 855 -80 0 -80 0 2 -852z"/>
<path d="M21510 2210 l0 -160 -85 0 -85 0 0 -65 0 -65 85 0 85 0 0 -382 c0
-429 7 -527 45 -604 48 -98 128 -133 328 -141 l137 -6 0 71 0 70 -124 4 c-139
3 -162 13 -201 79 -19 32 -20 55 -23 472 l-3 437 175 0 176 0 0 65 0 65 -175
0 -175 0 0 160 0 160 -80 0 -80 0 0 -160z"/>
<path d="M15015 2054 c-159 -34 -311 -145 -382 -279 -60 -115 -78 -194 -78
-350 0 -223 45 -345 175 -476 121 -122 241 -169 431 -169 122 0 231 23 312 67
112 61 232 212 253 321 l7 33 -82 -3 -82 -3 -23 -57 c-28 -69 -56 -104 -120
-152 -75 -56 -165 -79 -290 -74 -95 3 -109 6 -178 41 -122 60 -192 151 -229
298 -18 70 -21 102 -16 204 7 176 47 275 146 369 156 145 427 150 597 10 29
-23 55 -59 80 -109 l37 -75 80 0 80 0 -7 31 c-13 65 -71 164 -132 225 -136
137 -360 194 -579 148z"/>
<path d="M16336 2054 c-306 -60 -506 -343 -483 -680 13 -183 64 -301 182 -419
126 -127 246 -175 441 -175 189 0 327 54 450 175 212 211 244 593 72 850 -61
93 -121 145 -223 196 -131 65 -286 84 -439 53z m338 -162 c91 -43 137 -81 186
-154 60 -90 84 -179 84 -313 0 -169 -42 -284 -140 -382 -100 -100 -250 -148
-399 -126 -245 35 -394 228 -395 509 0 241 116 419 318 485 45 15 80 18 167
16 100 -3 117 -6 179 -35z"/>
<path d="M17731 2054 c-104 -28 -216 -109 -259 -188 -17 -31 -17 -31 -20 77
l-3 107 -79 0 -80 0 0 -630 0 -630 80 0 80 0 0 383 c0 415 6 470 55 566 86
172 308 246 509 171 108 -41 192 -149 216 -279 6 -30 10 -226 10 -447 l0 -394
76 0 75 0 -3 452 c-4 439 -4 455 -26 512 -60 161 -168 259 -329 301 -72 19
-230 18 -302 -1z"/>
<path d="M18925 2060 c-157 -32 -282 -131 -315 -250 -27 -97 -1 -218 63 -287
69 -75 129 -103 376 -173 166 -48 226 -75 268 -123 75 -86 40 -215 -77 -281
-53 -30 -59 -31 -175 -31 -108 0 -125 3 -176 26 -70 33 -125 89 -147 151 l-17
48 -78 0 -79 0 6 -37 c26 -143 158 -268 327 -308 86 -20 260 -20 330 1 163 48
262 156 276 298 12 129 -45 230 -164 294 -32 17 -134 54 -228 82 -202 61 -239
77 -289 120 -48 43 -66 79 -66 134 0 56 14 93 48 129 106 112 371 109 468 -6
33 -39 63 -104 64 -134 0 -22 4 -23 81 -23 l81 0 -7 43 c-28 167 -145 285
-322 322 -73 16 -183 18 -248 5z"/>
<path d="M22585 2054 c-149 -29 -294 -127 -379 -255 -97 -147 -130 -380 -80
-573 54 -209 229 -382 435 -431 92 -21 249 -19 343 5 170 43 311 157 384 310
54 115 67 174 66 315 0 140 -16 214 -71 325 -119 238 -405 362 -698 304z m338
-162 c92 -43 138 -81 186 -153 104 -156 118 -406 33 -576 -91 -180 -282 -276
-488 -246 -243 35 -394 232 -394 513 1 233 115 410 309 477 56 20 82 23 176
21 100 -3 116 -6 178 -36z"/>
<path d="M23970 2051 c-111 -36 -189 -95 -246 -187 l-23 -39 -1 113 0 112 -75
0 -75 0 0 -630 0 -630 75 0 75 0 0 378 c0 209 5 406 10 442 29 180 148 284
343 297 l77 6 0 78 0 79 -52 -1 c-29 0 -78 -8 -108 -18z"/>
<path d="M25075 2056 c-295 -68 -465 -298 -465 -628 0 -137 20 -229 72 -336
71 -145 207 -256 364 -297 76 -20 242 -20 319 0 123 33 236 113 304 218 l41
62 0 -143 0 -143 78 3 77 3 3 628 2 627 -80 0 -79 0 -3 -137 -3 -138 -19 35
c-54 99 -169 192 -286 231 -83 27 -240 35 -325 15z m307 -146 c212 -65 339
-271 325 -525 -12 -210 -125 -376 -305 -446 -82 -32 -252 -32 -334 0 -134 52
-225 151 -273 296 -33 97 -37 258 -10 351 49 167 164 288 314 330 73 20 209
17 283 -6z"/>
<path d="M19693 1623 c3 -357 7 -438 21 -486 65 -231 237 -360 481 -361 184
-1 329 66 407 186 l33 51 3 -112 3 -111 74 0 75 0 0 630 0 630 -74 0 -74 0 -4
-407 c-5 -449 -5 -455 -70 -563 -87 -144 -286 -207 -474 -149 -57 18 -77 31
-129 82 -44 44 -69 79 -86 122 -24 60 -24 63 -27 488 l-3 427 -81 0 -80 0 5
-427z"/>
<path d="M24270 1420 l0 -630 75 0 75 0 0 630 0 630 -75 0 -75 0 0 -630z"/>
</g>
</svg>
